# xmcd
#
# Track frame offsets:
#	150
#	19464
#	22450
#	41948
#	63792
#	94131
#	112107
#	136289
#	156203
#	173976
#	195365
#	224315
#
# Disc length: 3249 seconds
#
# Revision: 11
# Processed by: cddbd v1.5.2PL0 Copyright (c) Steve Scherf et al.
# Submitted via: Jack! The Knife
#
DISCID=b10caf0c
DTITLE=Bruce Dickinson - Accident of Birth
DYEAR=1997
DGENRE=Heavy Metal
TTITLE0=Freak
TTITLE1=Toltec 7 Arrival
TTITLE2=Starchildren
TTITLE3=Taking the Queen
TTITLE4=Darkside of Aquarius
TTITLE5=Road to Hell
TTITLE6=Man of Sorrows
TTITLE7=Accident of Birth
TTITLE8=The Magician
TTITLE9=Welcome to the Pit
TTITLE10=Omega
TTITLE11=Arc of Space
EXTD=YEAR: 1997
EXTT0=
EXTT1=
EXTT2=
EXTT3=
EXTT4=
EXTT5=
EXTT6=
EXTT7=
EXTT8=
EXTT9=
EXTT10=
EXTT11=
PLAYORDER=
